<svg xmlns="http://www.w3.org/2000/svg" viewBox="0 0 48 48"><defs><style>.cls-1{fill:#dad7e5;}.cls-2{fill:#db5669;}.cls-3{fill:#7c7d7d;}.cls-4{fill:#919191;}.cls-5{fill:#edebf2;}.cls-6{fill:#f26674;}.cls-7{fill:#6fabe6;}.cls-8{fill:#82bcf4;}.cls-9{fill:#c6c3d8;}</style></defs><title>Guide Book</title><g id="Guide_Book" data-name="Guide Book"><path class="cls-1" d="M43,15V43H28a4,4,0,0,0-4,4V19a4,4,0,0,1,4-4Z"/><path class="cls-2" d="M47,21V45a2,2,0,0,1-2,2H24a4,4,0,0,1,1.17-2.83C26.74,42.62,26.64,43,43,43V19h2A2,2,0,0,1,47,21Z"/><path class="cls-3" d="M38,13.64V15H10V13.64a2,2,0,0,1,1.61-2h0A2,2,0,0,0,12.9,8.6a2,2,0,0,1,.24-2.54l1.92-1.92a2,2,0,0,1,2.53-.25,2,2,0,0,0,3.08-1.26v0a2,2,0,0,1,2-1.61c3.25,0,3,0,3.43.13a2,2,0,0,1,1.25,1.48v0a2,2,0,0,0,3.08,1.26,2,2,0,0,1,2.53.25l1.92,1.92a2,2,0,0,1,.25,2.53,2,2,0,0,0,1.26,3.08h0A2,2,0,0,1,38,13.64Z"/><path class="cls-4" d="M38,13.64V15H14A14,14,0,0,1,19.1,4.2a2,2,0,0,0,1.35-1,14,14,0,0,1,5.62-2.08,2,2,0,0,1,1.25,1.48v0A2,2,0,0,0,30.4,3.9a2,2,0,0,1,2.54.24l1.92,1.92a2,2,0,0,1,.25,2.53,2,2,0,0,0,1.26,3.08h0A2,2,0,0,1,38,13.64Z"/><circle class="cls-1" cx="24" cy="15" r="7"/><path class="cls-5" d="M30.71,13C28,13,26.05,12.71,24,14.54A6.2,6.2,0,0,0,19.29,13,7,7,0,0,1,25,8.08,7,7,0,0,1,30.71,13Z"/><path class="cls-1" d="M24,19V47a4,4,0,0,0-1.17-2.83C21.26,42.62,21.36,43,5,43V15H20A4,4,0,0,1,24,19Z"/><path class="cls-5" d="M24,19c0,26,.08,23.42-.17,23.17A4,4,0,0,0,21,41H10a3,3,0,0,1-3-3V15H20A4,4,0,0,1,24,19Z"/><path class="cls-5" d="M24,19c0,26-.08,23.42.17,23.17A4,4,0,0,1,27,41H38a3,3,0,0,0,3-3V15H28A4,4,0,0,0,24,19Z"/><path class="cls-2" d="M24,47H3a2,2,0,0,1-2-2V21a2,2,0,0,1,2-2H5V43H20A4,4,0,0,1,24,47Z"/><path class="cls-6" d="M23.46,45H5a2,2,0,0,1-2-2V19H5V43H20A4,4,0,0,1,23.46,45Z"/><path class="cls-6" d="M24.54,45H43a2,2,0,0,0,2-2V19H43V43H28A4,4,0,0,0,24.54,45Z"/><rect class="cls-7" x="9" y="20" width="11" height="6"/><path class="cls-8" d="M20,20v4H15a4,4,0,0,1-4-4Z"/><path class="cls-9" d="M11,31H9a1,1,0,0,1,0-2h2A1,1,0,0,1,11,31Z"/><path class="cls-9" d="M20,31H15a1,1,0,0,1,0-2h5A1,1,0,0,1,20,31Z"/><path class="cls-9" d="M15,35H9a1,1,0,0,1,0-2h6A1,1,0,0,1,15,35Z"/><path class="cls-9" d="M13,39H9a1,1,0,0,1,0-2h4A1,1,0,0,1,13,39Z"/><path class="cls-9" d="M20,39H17a1,1,0,0,1,0-2h3A1,1,0,0,1,20,39Z"/><path class="cls-9" d="M20,35H19a1,1,0,0,1,0-2h1A1,1,0,0,1,20,35Z"/><path class="cls-9" d="M28,21a1,1,0,1,1,.71-1.71A1,1,0,0,1,28,21Z"/><path class="cls-9" d="M39,21H32a1,1,0,0,1,0-2h7A1,1,0,0,1,39,21Z"/><path class="cls-9" d="M28,25a1,1,0,0,1-.92-1.38,1,1,0,0,1,1.47-.45A1,1,0,0,1,28,25Z"/><path class="cls-9" d="M39,25H32a1,1,0,0,1,0-2h7A1,1,0,0,1,39,25Z"/><rect class="cls-7" x="28" y="28" width="4" height="6"/><path class="cls-8" d="M32,28v4a2,2,0,0,1-2-2V28Z"/><path class="cls-9" d="M39,39H28a1,1,0,0,1,0-2H39A1,1,0,0,1,39,39Z"/><path class="cls-9" d="M39,34H36a1,1,0,0,1,0-2h3A1,1,0,0,1,39,34Z"/><path class="cls-9" d="M39,30H36a1,1,0,0,1,0-2h3A1,1,0,0,1,39,30Z"/></g></svg>